Patient4_TMGait_0pt4_01_right_13_EMG.mot
version=1
nRows=39
nColumns=33
inDegrees=no
endheader
time	1LAddLong	2LGlutMax	3LGlutMed	4LIliopsoas	5LSemiMemb	6LBicFemLong	7LRecFem	8LVastMed	9LVastLat	10LGasMed	11LTibAnt	12lTibPost	13LPeroneusLong	14LSol	15LExtDigLong	16LFlexDigLong	17RAddLong	18RGlutMax	19RGlutMed	20RIliopsoas	21RSemiMemb	22RBicFemLong	23RRecFem	24RVastMed	25RVastLat	26RGasMed	27RTibAnt	28RTibPost	29RPeroneusLong	30RSol	31RExtDigLong	32RFlexDigLong
18.11	0.006256	-0.062408	0.088654	-0.004883	0.078888	-0.051575	0.077362	0	-0.080109	-0.026093	-0.02533	0.002136	0.24277	0.017853	0.028534	0.001678	-0.016174	-0.083771	0.010681	0.064392	-0.002136	-0.03067	0.076447	-0.045929	-0.048981	-0.010376	-0.045929	0.000305	0.16113	0.074005	-0.002441	-0.006714
18.111	-0.00061	-0.021057	0.13611	-0.01236	0.018311	-0.2066	-0.028076	0.001221	0.000916	0.15686	-0.024872	-0.004272	-0.09613	-0.12558	0.014038	-0.002289	-0.00061	-0.1445	-0.043793	0.081482	-0.002899	-0.035706	0.074463	-0.036774	-0.042267	-0.012207	0.017242	-0.000305	0.20966	0.020447	-0.002899	-0.003357
18.112	-0.006409	-0.072937	0.084839	0.00885	0.005646	-0.10269	-0.052795	0.005188	0.15762	0.15076	-0.023956	0.001678	-0.41199	-0.085907	0.033417	-0.58289	0.002594	-0.14008	-0.014648	0.15839	-0.001526	-0.043793	0.046234	-0.039368	-0.030823	-0.011597	0.29129	-0.003815	0.11307	0.028839	-0.001526	0.001373
18.113	-0.005493	-0.066071	0.045929	0.034332	-0.05249	0.037842	0.025024	0.005035	0.085754	0.04715	-0.021973	0.00473	-0.0383	-0.17761	-0.064545	-0.12436	0.002136	-0.11002	-0.080414	0.086823	-0.006714	-0.03479	0.064545	-0.019531	-0.020599	-0.01297	0.18967	-0.000916	0.006714	0.036621	-0.001221	0.007629
18.114	-0.009613	-0.015411	-0.011139	0.005341	-0.1355	0.033264	0.052185	0.003967	0.0177	-0.087585	0.003967	0.000153	-0.062256	-0.18143	-0.067749	0.72555	0.002441	-0.071564	-0.096893	-0.1088	-0.009613	-0.038452	0.008087	-0.052948	-0.004272	-0.007782	0.071564	-0.002289	0.055847	0.014191	-0.001373	0.003052
18.115	0.00351	0.032043	-0.084076	-0.005341	-0.13214	-0.19272	0.077057	-0.011139	-0.000153	-0.079956	0.029602	-0.005341	-0.072174	-0.12695	-0.018921	-0.35812	0.006866	-0.016785	0.087738	-0.2475	-0.003357	-0.0383	0.004272	-0.040588	0.006409	-0.007019	0.088501	-0.001068	0.059357	-0.012512	0.00946	0.003815
18.116	0.01236	-0.007477	-0.088959	-0.012665	-0.01358	-0.31326	0.017853	-0.013428	0.026245	0.014343	0.021973	-0.001068	0.10193	-0.077972	-0.050507	-0.22415	0.016479	-0.067139	0.21408	-0.32974	-0.01297	-0.037842	0.046539	-0.037994	0.010529	-0.007019	-0.14053	-0.001373	0.20401	-0.012207	-0.00351	0.000305
18.117	0.002441	0.030518	0.15472	0.00824	0.069885	-0.31418	0.058289	-0.008545	0.001526	-0.057983	0.021362	0.000153	0.11902	0.050659	-0.010071	0.077667	0.026398	-0.038605	-0.012207	-0.31082	0.001526	-0.044098	0.042267	-0.071259	0.01236	-0.003662	-0.045166	-0.003204	0.42297	-0.04364	-0.001984	0.002899
18.118	0.007629	0.045776	0.097961	0.016327	0.1799	-0.23132	0.12131	-0.00473	0.006561	-0.11231	0.000153	0.00351	0.022125	0.19623	0.007019	0.14603	0.044556	-0.016479	-0.30212	-0.26428	0.007019	-0.052795	0.038605	-0.059052	-0.00351	0.001831	0.047302	-0.001984	-0.16205	-0.098419	-0.003052	-0.003967
18.119	-0.00061	-0.004272	0.051727	0.023193	0.1001	0.010223	0.19043	-0.005493	-0.014648	0.36743	0.001221	0.001221	0.043335	0.20721	0.001678	-0.14587	0.045624	-0.03952	-0.2652	0.039978	-0.042877	-0.088348	0.018158	-0.054169	0.005493	-0.001831	0.13718	-0.001221	-0.55328	-0.055389	-0.001831	0.000153
18.12	-0.000763	-0.004425	0.028992	0.029755	0.024872	0.1181	0.17929	0.001678	-0.003357	0.48096	0.006714	0.004272	0.005341	0.11139	-0.009003	0.15823	0.019073	-0.068512	-0.098877	0.30472	-0.17609	-0.090027	0.021667	-0.023499	0.015717	-0.008545	-0.13718	-0.001373	-0.13748	0.079498	-0.003052	-0.003357
18.121	-0.01358	-0.010223	-0.009918	0.002747	0.046387	0.15381	0.096436	0.00351	-0.027161	0.27924	0.005646	0.001373	-0.012512	-0.19531	-0.074768	0.18585	0.011292	-0.1178	0.49088	0.35477	-0.32852	-0.12344	0.035858	-0.006561	0.001373	-0.015259	-0.08667	-0.000305	-0.121	0.14465	0.002441	-0.006409
18.122	-0.020447	0.031738	0.073395	-0.01358	0.082092	0.11246	-0.031433	0.011749	-0.035095	0.31235	-0.006256	0.010529	0.005798	-0.62485	-0.097504	0.19516	0.02655	-0.16769	0.61661	0.18265	-0.33951	0.005188	0.020905	-0.039825	0.001831	-0.020294	0.074158	-0.00061	-0.44983	0.10315	0.000763	-0.006714
18.123	-0.010986	0.003967	0.074158	-0.007477	-0.010529	0.076752	0.005035	0.002899	0.022888	0.20462	-0.027771	0.031586	0.054474	-0.53192	-0.041351	-0.042572	-0.011597	-0.12756	0.58365	0.047607	-0.030823	0.14954	0.050354	0.000916	0.00061	-0.01236	-0.081177	-0.002136	-0.05661	0.040741	-0.003357	-0.004578
18.124	0.006561	0.021667	-0.026093	0.005951	-0.020447	0.069122	-0.043793	-0.012054	0.030365	0.14191	-0.020752	0.023651	0.07309	-0.24033	-0.007629	-0.36621	-0.013733	-0.071564	0.30716	0.013733	0.13458	0.073395	-0.011597	0.013885	0.02182	-0.011597	-0.1387	0.000916	-0.44357	0.063782	-0.00473	0.000458
18.125	0.022736	0.005798	0.019379	-0.010223	-0.010986	0.046234	-0.036469	-0.012512	0.015259	-0.075836	-0.004578	0.017242	0.039825	0.040588	0.017395	0.16785	0.003815	-0.048065	-0.12619	-0.010986	0.42633	-0.06485	0.006561	-0.003204	0.011444	0.001526	0.046387	-0.000153	-0.04364	-0.13596	0.000916	0.001221
18.126	0.026703	-0.001678	0.11475	0.01236	-0.039673	0.060883	0.009613	-0.007324	0.038147	-0.17716	0.008545	0.001678	0.058289	0.1889	0.037842	-0.18646	0.029297	-0.045166	-0.08606	-0.05249	0.22003	-0.11658	0.015259	0.001373	0.007935	-0.005035	0.20371	0	0.42084	-0.13092	-0.001221	0.004425
18.127	0.018158	0.023346	0.097961	0.009308	0.031586	0.068817	0.06424	-0.005646	0.022583	-0.077972	0.005646	-0.013885	0.041504	0.28442	0.032196	-0.16068	0.041656	-0.042572	0.066681	-0.062714	-0.015259	-0.081787	0.019684	-0.031738	0.023651	-0.016174	0.29037	-0.001373	0.49789	-0.008087	-0.000763	0.001221
18.128	0.065918	0.011292	0.023804	0.021362	0.038147	0.040894	0.079193	-0.002136	0.010986	0.38116	-0.002136	-0.020599	0.008545	0.32623	-0.023956	0.089874	0.011597	-0.062714	-0.011902	-0.048981	-0.33508	0.008087	-0.010223	-0.034943	0.024719	-0.010986	0.17563	-0.000305	0.54733	-0.015869	-0.004578	0.005646
18.129	0.029449	-0.004578	-0.019226	0.018921	-0.00061	0.019989	0.059357	-0.001984	0.016479	0.80963	-0.00412	-0.001678	-0.010376	0.013275	-0.011139	0.33386	-0.022278	-0.044098	0.00946	-0.049896	-0.23315	0.010986	-0.006409	0.010986	0.025787	-0.007629	-0.16663	-0.001373	0.33096	-0.034332	-0.003357	0.006866
18.13	-0.002289	-0.012665	0.045471	-0.000916	-0.007629	0.014648	0.033569	-0.01297	0.007172	0.032196	-0.002594	0.013733	-0.026093	-0.064392	0.074768	0.21316	0.054321	-0.080566	0.004883	-0.00351	0.2301	0.014191	0.008392	-0.007172	0.015259	-0.00824	-0.17334	-0.005035	0.66177	-0.041504	-0.001526	0.00473
18.131	0.028229	0.002747	0.066986	-0.011292	-0.015717	0.012512	0.007019	-0.007324	0.017242	-0.25925	0.004425	0.019379	-0.032806	-0.15717	0.063019	-0.071259	0.068665	-0.063477	0.03479	-0.007935	0.21378	-0.071259	0.00412	0.032959	0.014191	-0.022583	-0.016022	-0.004425	0.66681	-0.005035	-0.001373	0.005035
18.132	0.00061	0.018768	0.03418	0.008698	-0.010376	0.004272	0.027466	-0.005035	0.019836	-0.077515	0.004578	0.013123	0.02243	0.004272	-0.02243	0.098572	0.037842	-0.033722	0.012665	-0.041962	0.11444	-0.10696	0.011749	0.018005	0.009308	-0.019531	0.050812	-0.000458	0.026855	0.063324	-0.005646	0.006104
18.133	0.000763	-0.008087	0.010681	-0.007782	0.014343	-0.02655	0.054932	-0.008545	0.009003	-0.32227	0.004578	0.018616	0.073395	0.1294	-0.059509	-0.13992	-0.031281	-0.019684	-0.015259	-0.088196	-0.032349	-0.14008	0.012665	-0.017548	-0.006561	-0.027008	0.053253	-0.008087	-0.44907	0.086212	-0.001373	-0.000763
18.134	0.01358	0.004883	-0.029144	-0.010071	0.031128	0.008392	0.055237	-0.001984	0.00351	-0.53192	0.001526	0.00061	0.10223	0.12589	-0.037384	-0.13336	-0.057831	-0.02533	-0.020599	-0.083313	-0.055695	-0.13351	0.033875	-0.037537	0.015717	-0.035095	0.17166	-0.000763	-0.19333	0.091248	-0.003357	0.003967
18.135	0.005341	-0.005951	-0.002136	-0.002747	0.015869	0.044708	0.078125	0.003204	-0.009003	-0.30456	0.014801	-0.013123	0.10635	0.1535	-0.028381	-0.13901	-0.087738	-0.047302	0.022583	-0.065308	-0.009155	-0.17746	0	-0.032501	0.005951	-0.024872	0.13092	-0.001526	-0.050049	0.022736	-0.000458	-0.004425
18.136	-0.006256	-0.052032	0.070648	-0.020142	0.004578	0.01297	0.080109	0.007629	-0.000458	-0.088654	0.026703	-0.001373	-0.016479	0.1265	0.008698	-0.043335	-0.071716	-0.079956	0.013123	0.032654	-0.001373	-0.20187	-0.028229	-0.007324	0.012207	-0.016479	0.13245	-0.004425	-0.047913	0.009155	-0.002441	-0.016632
18.137	-0.005341	-0.04715	0.003967	-0.024719	0.042267	-0.08316	0.068054	0.005341	0.011139	-0.083008	0.021973	-0.010071	0.050354	0.15671	0.063782	-0.000763	-0.046387	-0.042572	0.019226	0.019531	-0.010834	-0.20538	-0.026093	0.00412	0.019531	-0.012054	0.24567	-0.000305	-0.23117	-0.070648	-0.004425	-0.004272
18.138	-0.010529	0.012665	0.001984	-0.005951	0.051117	-0.099487	0.098724	-0.000458	-0.007935	-0.040283	0.019989	0.001221	-0.36285	0.046692	0.014954	-0.07843	-0.022888	-0.034637	0.04837	0.031738	-0.033875	-0.14084	-0.011292	-0.007782	0.006256	-0.007782	0.28091	-0.001678	-0.17685	-0.04776	-0.000305	-0.005188
18.139	-0.009308	0.018158	-0.021667	-0.002289	-0.011749	-0.091858	0.060272	0.004883	-0.015564	-0.086365	0.001068	0.003815	-0.057526	-0.056152	-0.006714	-0.049591	-0.000916	-0.038147	-0.029297	0.093536	-0.038605	0.10071	-0.018005	0.0177	0.015869	-0.006866	0.16602	-0.003204	0.048065	0.000916	-0.000153	-0.010681
18.14	-0.006104	0.031586	-0.010681	0.005341	-0.034485	-0.071869	0.070648	0.000305	-0.006256	-0.21744	-0.009613	0.004425	0.37674	-0.031128	0.024109	-0.028381	0.03006	-0.013275	0.024567	0.065155	-0.037079	0.033264	-0.013885	-0.046234	0.002289	-0.000153	-0.073242	-0.005188	0.3714	0.076752	0.001831	-0.009918
18.141	0.006866	0.016174	-0.017395	0.005798	0.03006	-0.016937	0.070496	0.000916	-0.013733	-0.34134	0.009155	0.001984	0.52994	-0.049438	0.028992	-0.018768	0.033875	-0.04425	0.050049	-0.10056	-0.026093	-0.037537	0.031281	-0.010529	0.000763	0.000153	-0.11139	0.000916	0.088196	0.007172	-0.001526	-0.000305
18.142	-0.005035	0.007172	-0.043488	-0.003662	-0.025024	0.050812	0.054474	0.003204	-0.041351	-0.33737	0.011444	-0.004272	0.18021	-0.022583	0.045929	0.000916	0.040588	-0.078583	0.29007	-0.22186	-0.029144	-0.06424	0.042725	-0.06958	-0.013885	0.007172	-0.085297	-0.000916	-0.30319	-0.035858	-0.002747	-0.007172
18.143	-0.005493	-0.025635	-0.027771	-0.000763	-0.083008	0.1239	0.071106	0.003357	-0.034027	-0.19684	-0.001373	0.002747	-0.17914	0.040283	-0.006256	0.001373	0.0354	-0.12268	0.40512	-0.066528	-0.041046	-0.10254	0.025787	-0.056915	-0.014648	0.013428	0.30121	0.001831	-0.47882	-0.020142	-0.003967	-0.005951
18.144	-0.000916	0.006409	0.09903	0.014191	-0.045776	0.084839	0.045471	0.000153	-0.003662	-0.033875	-0.009766	-0.005493	-0.25024	-0.001984	-0.057068	-0.048676	0.031128	-0.002441	0.057831	0.1973	-0.04776	-0.12314	-0.019073	-0.037079	0.000763	0.015564	0.62393	-0.001221	-0.37415	-0.033875	-0.004578	-0.006714
18.145	0.004578	-0.017395	0.12482	0.016022	-0.088959	-0.016327	0.039978	0.007782	-0.008545	0.070801	0.011139	0.000916	-0.18997	-0.03067	-0.11902	0.014343	0.00885	-0.015259	-0.26886	0.21576	-0.019531	-0.14694	0.00946	-0.030975	-0.003357	0.0177	0.72357	-0.001221	-0.6041	-0.079498	-0.003662	-0.006866
18.146	0.007172	-0.027466	0.052338	0.010834	-0.12772	-0.080109	0.009613	0.000305	-0.026245	0.21149	0.00412	0.15839	-0.066986	0.16129	-0.04364	0.039215	-0.014496	-0.047607	-0.12405	0.14633	-0.033569	-0.13107	-0.006256	-0.03418	0.002747	0.031281	0.13382	-0.000458	-0.39566	-0.1648	-0.000916	0.000458
18.147	0.005798	0.009613	0.096893	0.021362	-0.12344	-0.083923	-0.091248	0.010529	-0.000458	0.42129	0.002747	-0.04776	-0.0177	0.16785	0.007477	0.11704	-0.025635	-0.02182	-0.13687	0.11902	-0.031433	-0.13458	-0.060272	-0.010986	0.018921	0.045471	-0.61096	-0.000305	-0.13077	-0.177	-0.006714	0.000458
18.148	0.008087	-0.013428	0.069733	-0.006104	0.072174	-0.007477	-0.062103	0.00824	0.033264	0.17929	-0.005188	0.001526	-0.22415	0.052338	0.016937	-0.062561	-0.00824	-0.063782	-0.10208	0.066528	-0.020142	-0.13947	-0.030975	-0.013428	-0.001526	0.042725	-0.58273	0.001068	-0.31357	-0.16632	0.00061	0.004578
